<mxfile host="Electron" modified="2023-10-30T09:55:17.945Z" agent="Mozilla/5.0 (X11; Linux x86_64) AppleWebKit/537.36 (KHTML, like Gecko) draw.io/22.0.3 Chrome/114.0.5735.289 Electron/25.8.4 Safari/537.36" etag="29ZAvnH19fMhq0E7qv1_" version="22.0.3" type="device">
  <diagram name="Page-1" id="hkjy5ZlSasr2dCMDf1Uu">
    <mxGraphModel dx="1434" dy="838" grid="1" gridSize="10" guides="1" tooltips="1" connect="1" arrows="1" fold="1" page="1" pageScale="1" pageWidth="850" pageHeight="1100" math="0" shadow="0">
      <root>
        <mxCell id="0" />
        <mxCell id="1" parent="0" />
        <mxCell id="EVcr1_kG4L70O0OWHj9u-1" value="&lt;b&gt;&lt;font style=&quot;font-size: 16px;&quot;&gt;A&lt;/font&gt;&lt;/b&gt;" style="verticalAlign=top;verticalLabelPosition=bottom;labelPosition=center;align=center;html=1;outlineConnect=0;fillColor=#e1d5e7;strokeColor=#9673a6;gradientDirection=north;strokeWidth=2;shape=mxgraph.networks.laptop;" vertex="1" parent="1">
          <mxGeometry x="60" y="220" width="100" height="55" as="geometry" />
        </mxCell>
        <mxCell id="EVcr1_kG4L70O0OWHj9u-4" value="" style="rounded=0;whiteSpace=wrap;html=1;strokeWidth=2;" vertex="1" parent="1">
          <mxGeometry x="240" y="190" width="240" height="100" as="geometry" />
        </mxCell>
        <mxCell id="EVcr1_kG4L70O0OWHj9u-5" value="" style="whiteSpace=wrap;html=1;aspect=fixed;" vertex="1" parent="1">
          <mxGeometry x="250" y="250" width="25" height="25" as="geometry" />
        </mxCell>
        <mxCell id="EVcr1_kG4L70O0OWHj9u-6" value="" style="whiteSpace=wrap;html=1;aspect=fixed;" vertex="1" parent="1">
          <mxGeometry x="255" y="255" width="15" height="15" as="geometry" />
        </mxCell>
      </root>
    </mxGraphModel>
  </diagram>
</mxfile>
